<svg xmlns="http://www.w3.org/2000/svg" width="24" height="24" viewBox="0 0 24 24" fill="none">
    <g clip-path="url(#clip0_21_1957)">
        <path d="M20.945 11.0002C21.1767 13.0719 20.682 15.1597 19.5455 16.9072C18.4091 18.6547 16.7012 19.9536 14.7136 20.5819C12.726 21.2102 10.5819 21.1291 8.64741 20.3524C6.71295 19.5757 5.10808 18.1516 4.10685 16.3232C3.10562 14.4949 2.77012 12.3756 3.15763 10.3274C3.54515 8.27918 4.63165 6.42898 6.23161 5.09274C7.83157 3.7565 9.84577 3.01709 11.9303 3.00076C14.0148 2.98444 16.0403 3.69221 17.661 5.00323L15.006 7.39523C14.0544 6.77448 12.934 6.46364 11.7986 6.50543C10.6633 6.54722 9.56874 6.93958 8.66539 7.6286C7.76205 8.31762 7.09424 9.26948 6.75375 10.3534C6.41326 11.4373 6.41679 12.6 6.76386 13.6819C7.11092 14.7637 7.78449 15.7115 8.692 16.395C9.59952 17.0785 10.6964 17.4642 11.832 17.4991C12.9676 17.534 14.0861 17.2164 15.0339 16.5899C15.9817 15.9633 16.7122 15.0587 17.125 14.0002H13V11.0002H20.945Z" stroke="#363940" stroke-width="1.5" stroke-linecap="round" stroke-linejoin="round"/>
    </g>
    <defs>
        <clipPath id="clip0_21_1957">
            <rect width="24" height="24" fill="white"/>
        </clipPath>
    </defs>
</svg>
