<svg xmlns="http://www.w3.org/2000/svg" width="24" height="24" viewBox="0 0 24 24" fill="none">
    <path d="M14.8938 10.482C14.1597 11.2165 13.1432 11.6685 12.0139 11.6685C10.8846 11.6685 9.86812 11.2165 9.13403 10.482C8.39993 9.74742 7.94814 8.73037 7.94814 7.60038C7.94814 6.47039 8.39989 5.45333 9.13403 4.71881C9.86813 3.98428 10.8846 3.53223 12.0139 3.53223C13.1432 3.53223 14.1597 3.98424 14.8938 4.71881C15.6279 5.45339 16.0797 6.47039 16.0797 7.60038C16.0797 8.73037 15.6279 9.74743 14.8938 10.482ZM12.0139 5.76404C11.5057 5.76404 11.0398 5.97592 10.7152 6.30081C10.3763 6.63982 10.1787 7.09183 10.1787 7.60032C10.1787 8.10881 10.3905 8.57496 10.7152 8.89984C11.054 9.23885 11.5057 9.4366 12.0139 9.4366C12.5221 9.4366 12.988 9.22472 13.3127 8.89984C13.6515 8.56082 13.8491 8.10881 13.8491 7.60032C13.8491 7.09183 13.6374 6.62569 13.3127 6.30081C12.988 5.96179 12.5221 5.76404 12.0139 5.76404ZM16.2914 11.6968L17.4773 13.3213C17.5338 13.406 17.5197 13.519 17.4491 13.5755C16.4468 14.3948 15.275 14.9457 14.0609 15.2282L16.3621 19.6636C16.4326 19.7908 16.3338 19.9461 16.1927 19.9461H13.7362C13.6657 19.9461 13.5951 19.9038 13.5668 19.8331L12.014 16.1746L10.4611 19.8331C10.4328 19.9038 10.3622 19.9461 10.2917 19.9461H7.82117C7.68 19.9461 7.58118 19.7908 7.65177 19.6636L9.96698 15.2282C8.75285 14.9457 7.58113 14.3948 6.57883 13.5755C6.50824 13.519 6.49412 13.406 6.55059 13.3213L7.75056 11.6968C7.82114 11.612 7.9482 11.5979 8.0329 11.6685C9.16232 12.6291 10.5458 13.2506 12.0281 13.2506C13.5105 13.2506 14.8939 12.6291 16.0233 11.6685C16.0939 11.5838 16.221 11.5979 16.2916 11.6968H16.2914Z" fill="white"/>
</svg>
