<svg xmlns="http://www.w3.org/2000/svg" width="242" height="172" viewBox="0 0 242 172" fill="none">
    <path d="M23.4439 172L0 141.958C15.6293 134.035 29.3874 124.791 41.2745 114.226C53.1616 103.662 60.9762 93.318 64.7184 83.1939C55.9132 83.634 47.7684 82.3135 40.2839 79.2322C33.0196 75.9309 27.1861 71.199 22.7835 65.0365C18.601 58.6539 16.5098 51.2809 16.5098 42.9175C16.5098 30.3724 20.6923 20.1382 29.0573 12.215C37.6424 4.07166 48.3187 0 61.0863 0C75.835 0 87.612 4.95202 96.4173 14.8561C105.443 24.54 109.955 38.0755 109.955 55.4626C109.955 68.4479 106.653 81.8733 100.049 95.739C93.6656 109.385 84.0899 122.7 71.3223 135.685C58.5548 148.671 42.5953 160.775 23.4439 172ZM154.862 172L131.418 141.958C147.047 134.035 160.805 124.791 172.693 114.226C184.58 103.662 192.394 93.318 196.136 83.1939C187.331 83.634 179.186 82.3135 171.702 79.2322C164.438 75.9309 158.604 71.199 154.202 65.0365C150.019 58.6539 147.928 51.2809 147.928 42.9175C147.928 30.3724 152.11 20.1382 160.475 12.215C169.06 4.07166 179.737 0 192.504 0C207.253 0 219.03 4.95202 227.835 14.8561C236.861 24.54 241.373 38.0755 241.373 55.4626C241.373 68.4479 238.071 81.8733 231.467 95.739C225.084 109.385 215.508 122.7 202.74 135.685C189.973 148.671 174.013 160.775 154.862 172Z" fill="#DDFF33" fill-opacity="0.2"/>
</svg>
