<svg xmlns="http://www.w3.org/2000/svg" width="129" height="88" viewBox="0 0 129 88" fill="none">
    <path d="M119.553 34.2478C120.965 42.1044 118.305 49.9062 113.718 56.2418C108.235 63.8193 100.271 69.4218 91.8678 73.2735C81.8486 77.8256 70.9763 80.156 59.9862 80.1069C50.3451 80.0577 40.4435 78.1702 31.937 73.4814C25.0048 69.6516 18.9086 63.7646 16.5906 55.9737C14.3215 48.4181 16.0478 40.474 20.0812 33.8539C24.8474 26.0357 32.3279 20.0776 40.3241 15.8867C50.0074 10.8908 60.6391 8.04042 71.5055 7.52681C81.3745 7.01799 91.591 8.4186 100.646 12.5821C107.931 15.9414 114.706 21.336 117.952 28.908C118.68 30.6189 119.217 32.4062 119.553 34.2369C119.673 34.8551 121.247 34.4612 121.128 33.8102C119.618 25.6582 114.119 19.0983 107.317 14.7214C99.0823 9.41982 89.1644 7.01799 79.4854 6.51465C68.2108 5.96013 56.948 7.82497 46.442 11.9858C37.371 15.635 28.6528 21.0952 22.2906 28.6673C17.0955 34.8442 13.4855 42.6187 14.0284 50.8637C14.5712 59.1087 19.218 66.1172 25.5748 70.9811C33.1747 76.7969 42.7126 79.6856 52.0877 80.7033C63.2834 81.8491 74.5927 80.558 85.2505 76.9173C94.7721 73.6947 103.908 68.623 110.976 61.3519C116.687 55.4704 121.166 47.8382 121.513 39.4673C121.589 37.5822 121.46 35.6943 121.128 33.8375C121.019 33.1974 119.439 33.5913 119.553 34.2478Z" fill="#DDFF33"/>
    <path d="M126.399 44.0412C126.399 53.4297 121.676 61.9099 114.999 68.2127C106.91 75.8723 96.4278 80.6103 85.7445 83.2255C73.2554 86.2395 60.2738 86.5472 47.658 84.1282C36.5567 82.0109 25.5802 77.6887 16.7426 70.4941C9.57699 64.6181 3.85533 56.5318 2.76963 47.0886C1.7165 37.9026 5.44046 29.0886 11.4878 22.3481C18.7077 14.2891 28.7234 9.04231 38.9344 5.93471C51.2554 2.26809 64.2137 1.30911 76.934 3.12254C88.3339 4.70917 99.6849 8.4952 109.168 15.159C116.866 20.5974 123.494 28.2351 125.66 37.6673C126.143 39.7573 126.39 41.8954 126.399 44.0412C126.399 44.9002 128 44.6977 128 43.9372C127.973 34.2314 123.114 25.5433 116.242 19.0107C108.001 11.1815 97.242 6.31769 86.3524 3.61495C73.5263 0.490095 60.1859 0.161801 47.2237 2.65203C35.8239 4.84048 24.5325 9.29399 15.4941 16.7293C8.16558 22.7639 2.29192 31.0582 1.18451 40.7202C0.0988035 50.1798 3.89876 59.3221 10.1036 66.2431C17.546 74.5428 27.8059 79.9756 38.3318 83.2036C50.9176 86.9534 64.1548 87.9403 77.1511 86.0978C88.8876 84.4565 100.548 80.572 110.308 73.6893C118.234 68.1032 125.014 60.2084 127.245 50.5245C127.739 48.3714 127.991 46.169 127.995 43.9591C127.995 43.0728 126.399 43.2807 126.399 44.0412Z" fill="#DDFF33"/>
    <path d="M126.399 44.0412C126.399 53.4297 121.676 61.9099 114.999 68.2127C106.91 75.8723 96.4278 80.6103 85.7445 83.2255C73.2554 86.2395 60.2738 86.5472 47.658 84.1282C36.5567 82.0109 25.5802 77.6887 16.7426 70.4941C9.57699 64.6181 3.85533 56.5318 2.76963 47.0886C1.7165 37.9026 5.44046 29.0886 11.4878 22.3481C18.7077 14.2891 28.7234 9.04231 38.9344 5.93471C51.2554 2.26809 64.2137 1.30911 76.934 3.12254C88.3339 4.70917 99.6849 8.4952 109.168 15.159C116.866 20.5974 123.494 28.2351 125.66 37.6673C126.143 39.7573 126.39 41.8954 126.399 44.0412ZM126.399 44.0412C126.399 44.9002 128 44.6977 128 43.9372C127.973 34.2314 123.114 25.5433 116.242 19.0107C108.001 11.1815 97.242 6.31769 86.3524 3.61495C73.5263 0.490095 60.1859 0.161801 47.2237 2.65203C35.8239 4.84048 24.5325 9.29398 15.4941 16.7293C8.16558 22.7639 2.29192 31.0582 1.18451 40.7202C0.0988035 50.1798 3.89876 59.3221 10.1036 66.2431C17.546 74.5428 27.8059 79.9756 38.3318 83.2036C50.9176 86.9534 64.1548 87.9403 77.1511 86.0978C88.8876 84.4565 100.548 80.572 110.308 73.6893C118.234 68.1032 125.014 60.2084 127.245 50.5245C127.739 48.3714 127.991 46.169 127.995 43.9591C127.995 43.0728 126.399 43.2807 126.399 44.0412ZM119.553 34.2478C120.965 42.1044 118.305 49.9062 113.718 56.2418C108.235 63.8193 100.271 69.4218 91.8678 73.2735C81.8486 77.8256 70.9763 80.156 59.9862 80.1069C50.3451 80.0577 40.4435 78.1701 31.937 73.4814C25.0048 69.6516 18.9086 63.7646 16.5906 55.9737C14.3215 48.4181 16.0478 40.474 20.0812 33.8539C24.8474 26.0357 32.3279 20.0776 40.3241 15.8867C50.0074 10.8908 60.6391 8.04042 71.5055 7.52681C81.3745 7.01799 91.591 8.4186 100.646 12.5821C107.931 15.9414 114.706 21.336 117.952 28.908C118.68 30.6189 119.217 32.4062 119.553 34.2369C119.673 34.8551 121.247 34.4612 121.128 33.8102C119.618 25.6582 114.119 19.0983 107.317 14.7214C99.0823 9.41982 89.1644 7.01799 79.4854 6.51465C68.2108 5.96013 56.948 7.82497 46.442 11.9858C37.371 15.635 28.6528 21.0952 22.2906 28.6673C17.0955 34.8442 13.4855 42.6187 14.0284 50.8637C14.5712 59.1087 19.218 66.1172 25.5748 70.9811C33.1747 76.7969 42.7126 79.6856 52.0877 80.7033C63.2834 81.8491 74.5927 80.558 85.2505 76.9172C94.7721 73.6947 103.908 68.623 110.976 61.3519C116.687 55.4704 121.166 47.8382 121.513 39.4673C121.589 37.5822 121.46 35.6943 121.128 33.8375C121.019 33.1974 119.439 33.5913 119.553 34.2478Z" stroke="#DDFF33" stroke-width="2"/>
</svg>
